<svg version="1.2" xmlns="http://www.w3.org/2000/svg" viewBox="0 0 1125 139" width="1125" height="139">
	<title>website_logo</title>
	<defs>
		<radialGradient id="g1" cx="129.4" cy="18.5" r="126.1" gradientUnits="userSpaceOnUse">
			<stop offset=".003" stop-color="#ef4857"/>
			<stop offset=".469" stop-color="#d211ec"/>
			<stop offset="1" stop-color="#7f52ff"/>
		</radialGradient>
	</defs>
	<style>
		.s0 { fill: url(#g1) } 
		.s1 { fill: #191919 } 
	</style>
	<path id="Layer" class="s0" d="m133 124h-110v-110h110l-56.1 54.2z"/>
	<path id="KRYPTOKRONA SDK" class="s1" aria-label="KRYPTOKRONA SDK"  d="m192.6 82.1l7.9-8.8 19.8 31.7h14.5l-26.3-41 25.1-32.2h-14.8l-19.3 25.5-6.9 8.9v-34.4h-12.2v73.2h12.2zm61.9-5.5h12.4l14 28.4h13v-0.7l-15.7-30.6q3-1.4 5.5-3.2 2.5-1.9 4.2-4.3 1.8-2.5 2.7-5.6 1-3 1-6.8 0-5.5-1.9-9.6-1.9-4.1-5.3-6.9-3.5-2.7-8.2-4.1-4.8-1.4-10.5-1.4h-23.2v73.2h12zm11.3-9.9h-11.3v-25.1h11.2q3.1 0.1 5.6 0.9 2.5 0.7 4.3 2.2 1.9 1.7 2.9 4.1 1 2.3 1 5.5 0 2.8-0.9 5-0.9 2.2-2.5 3.8-1.9 1.7-4.5 2.7-2.5 0.9-5.8 0.9zm77.2-34.9l-15.3 35-15.4-35h-13.4l22.7 46.7 0.1 26.5h11.8l0.1-26.2 22.9-47zm35.9 73.2v-27.9h12.4q5.5 0 10.2-1.6 4.6-1.6 8-4.6 3.4-2.9 5.2-7 1.9-4.1 1.9-9.2 0-5.3-1.9-9.5-1.8-4.2-5.2-7.2-3.4-3-8-4.6-4.7-1.6-10.2-1.6h-24.5v73.2zm12.4-37.8h-12.4v-25.6h12.4q3.1 0.1 5.5 1 2.5 1 4.2 2.8 1.7 1.7 2.6 4.1 0.9 2.4 0.9 5.3 0 2.7-0.9 4.9-0.9 2.3-2.6 4-1.7 1.6-4.2 2.6-2.4 0.9-5.5 0.9zm65.8-25.4h22.6v-10h-57v10h22.4v63.2h12zm82.1 31.5v-9.7q0-4.6-0.8-8.8-0.8-4.3-2.4-8-1.5-3.4-3.6-6.4-2.2-2.9-5.1-5-2.9-2.2-6.6-3.4-3.7-1.2-8.1-1.2-4.3 0-7.9 1.2-3.6 1.1-6.4 3.3-2.9 2.2-5.1 5.2-2.1 3-3.5 6.6-1.6 3.7-2.3 7.9-0.8 4.1-0.8 8.6v9.7q0 4.3 0.7 8.3 0.7 4.1 2.2 7.6 1.4 3.7 3.6 6.9 2.2 3.1 5.1 5.3 2.9 2.2 6.5 3.4 3.7 1.2 8 1.2 4.3 0 7.8-1.1 3.6-1.2 6.5-3.2 3-2.2 5.3-5.3 2.3-3.1 3.9-6.8 1.4-3.6 2.2-7.8 0.8-4.1 0.8-8.5zm-12.2-9.8v9.8q0 2.7-0.3 5.4-0.3 2.6-0.9 5-0.7 2.8-1.9 5.1-1.2 2.2-2.9 3.9-1.5 1.5-3.6 2.3-2.1 0.9-4.7 0.9-2.6 0-4.7-0.9-2-0.9-3.6-2.4-1.6-1.6-2.7-3.9-1.1-2.4-1.8-5.1-0.6-2.4-0.8-5-0.3-2.7-0.3-5.3v-9.8q0-2.7 0.3-5.4 0.3-2.7 0.9-5.1 0.6-2.8 1.8-5.1 1.2-2.3 3-3.9 1.4-1.4 3.4-2.2 2-0.8 4.4-0.8 2.6 0 4.6 0.8 2 0.9 3.6 2.3 1.7 1.6 3 3.9 1.2 2.2 2 5 0.6 2.4 0.9 5.1 0.3 2.7 0.3 5.4zm36.5 18.6l7.9-8.8 19.8 31.7h14.5l-26.3-41 25-32.2h-14.8l-19.3 25.5-6.8 8.9v-34.4h-12.2v73.2h12.2zm61.9-5.5h12.4l14 28.4h12.9v-0.7l-15.6-30.6q3-1.3 5.5-3.2 2.4-1.9 4.2-4.3 1.7-2.5 2.7-5.6 1-3 1-6.8 0-5.5-1.9-9.6-1.9-4.1-5.3-6.8-3.5-2.8-8.3-4.2-4.8-1.4-10.4-1.4h-23.3v73.2h12.1zm11.3-9.9h-11.3v-25.1h11.2q3.1 0.1 5.6 0.9 2.5 0.8 4.3 2.3 1.9 1.6 2.8 4 1 2.4 1 5.5 0 2.8-0.9 5-0.9 2.3-2.5 3.8-1.8 1.7-4.4 2.7-2.6 0.9-5.8 0.9zm87.9 6.6v-9.7q0-4.6-0.8-8.8-0.8-4.3-2.4-8-1.5-3.4-3.6-6.4-2.2-2.9-5.1-5-2.9-2.2-6.6-3.4-3.7-1.2-8-1.2-4.4 0-8 1.2-3.6 1.1-6.4 3.3-2.9 2.2-5 5.2-2.2 3-3.6 6.6-1.5 3.7-2.3 7.9-0.7 4.1-0.7 8.6v9.7q0 4.3 0.7 8.3 0.7 4.1 2.1 7.6 1.4 3.7 3.6 6.9 2.2 3.1 5.1 5.3 2.9 2.2 6.5 3.4 3.7 1.2 8.1 1.2 4.2 0 7.7-1.1 3.6-1.2 6.5-3.2 3-2.2 5.3-5.3 2.3-3.1 3.9-6.8 1.5-3.6 2.2-7.8 0.8-4.1 0.8-8.5zm-12.1-9.8v9.8q-0.1 2.7-0.4 5.4-0.3 2.6-0.9 5-0.7 2.8-1.9 5.1-1.1 2.2-2.9 3.9-1.5 1.5-3.6 2.3-2.1 0.9-4.6 0.9-2.7 0-4.8-0.9-2-0.9-3.5-2.4-1.6-1.6-2.8-3.9-1.1-2.4-1.8-5.1-0.6-2.4-0.8-5-0.3-2.7-0.3-5.3v-9.8q0-2.7 0.3-5.4 0.3-2.7 0.9-5.1 0.6-2.8 1.9-5.1 1.2-2.3 2.9-3.9 1.5-1.4 3.4-2.2 2-0.8 4.5-0.8 2.5 0 4.5 0.8 2.1 0.9 3.6 2.3 1.8 1.6 3 3.9 1.2 2.2 2 5 0.6 2.4 0.9 5.1 0.3 2.7 0.4 5.4zm59.4 41.5h12.2v-73.2h-12.2l-0.1 50.2-23.6-50.2h-12.3v73.2h12.2l0.1-50.4zm39.2-16.8h23l4.9 16.8h12.5l-23.4-73.2h-10.7l-23.9 73.2h12.6zm20-10.3h-16.9l8.5-29zm111.7 8.3q0 2.5-1 4.3-1 1.9-2.8 3.1-1.7 1.3-4.1 2-2.4 0.7-5.2 0.7-3.2 0-6-0.9-2.7-0.8-4.7-2.4-2.1-1.6-3.3-4.1-1.1-2.5-1.4-5.9h-12.1q0.1 5.3 2.1 9.4 2.2 4.1 5.7 7.1 3.9 3.2 9.1 4.9 5.3 1.7 10.6 1.7 5.1 0 9.7-1.3 4.6-1.3 8-3.9 3.5-2.4 5.5-6.2 2-3.7 2-8.6 0-5.2-2.3-9.3-2.3-4-6.2-7-3.1-2.3-6.9-3.9-3.6-1.6-7.5-2.7-3.1-0.9-5.9-2-2.7-1.1-4.9-2.5-2.1-1.4-3.4-3.2-1.2-1.9-1.3-4.5 0-2.3 1-4.2 0.9-1.9 2.6-3.3 1.7-1.3 4.1-2 2.3-0.8 5.1-0.8 3.2 0 5.6 1 2.4 0.9 4.1 2.5 1.7 1.7 2.6 4 1 2.2 1.2 5h12q0-5-2-9.1-2-4.1-5.4-7-3.4-3-8.1-4.6-4.5-1.6-9.9-1.6-5 0-9.6 1.4-4.5 1.3-7.9 4-3.4 2.6-5.4 6.4-2.1 3.7-2.1 8.4 0 4.3 1.8 7.8 1.7 3.4 4.8 6.1 3.1 2.7 7.4 4.8 4.4 2.2 9.5 3.6 3.4 1 6.1 2.2 2.8 1.1 4.8 2.6 1.9 1.6 3 3.5 1 2 1 4.5zm23.1-54.3v73.2h18.5q5 0 9.4-1.2 4.4-1.2 8.1-3.5 3.2-2 5.8-5 2.7-2.9 4.5-6.4 1.9-3.7 2.9-8.1 1.1-4.5 1.1-9.5v-5.7q0-5.2-1.1-9.8-1.1-4.6-3.1-8.4-2-3.7-4.9-6.6-2.9-3-6.6-5-3.4-1.9-7.6-2.9-4.2-1.1-8.9-1.1zm12.2 63.4v-53.6h5.9q2.9 0.1 5.4 0.7 2.6 0.6 4.6 1.8 2.7 1.6 4.7 4.1 2.1 2.4 3.3 5.5 0.9 2.5 1.4 5.5 0.5 3 0.5 6.3v5.8q0 3.4-0.5 6.3-0.5 3-1.4 5.5-1.1 3-2.9 5.3-1.7 2.3-3.9 3.8-2.2 1.4-4.9 2.2-2.7 0.8-5.9 0.8zm62.3-13.1l7.9-8.8 19.8 31.7h14.5l-26.3-41 25-32.2h-14.8l-19.3 25.5-6.8 8.9v-34.4h-12.2v73.2h12.2z"/>
</svg>